<?xml version="1.0" encoding="utf-8"?>
<!-- Generator: Adobe Illustrator 25.4.1, SVG Export Plug-In . SVG Version: 6.00 Build 0)  -->
<svg version="1.1" id="Vrstva_1" xmlns="http://www.w3.org/2000/svg" xmlns:xlink="http://www.w3.org/1999/xlink" x="0px" y="0px"
	 viewBox="0 0 1784.63 959.71" style="enable-background:new 0 0 1784.63 959.71;" xml:space="preserve">
<style type="text/css">
	.st0{fill:#1D1D1B;}
</style>
<path class="st0" d="M1692.39,422.09c-59.48-59.48-138.57-92.24-222.69-92.24c-44.55,0-87.69,9.19-127.25,26.67l-166.85-271.6h52.22
	c23.45,0,42.46-19.01,42.46-42.46c0-23.45-19.01-42.46-42.46-42.46h-128.15c-15.38,0-29.55,8.31-37.06,21.74
	c-7.51,13.42-7.17,29.85,0.88,42.95l45.04,73.31H622.68l-31.45-53.08h113.49c23.45,0,42.46-19.01,42.46-42.46
	C747.18,19.01,728.17,0,704.71,0H517.25c-0.15,0-0.31,0-0.46,0h-84.13c-23.45,0-42.46,19.01-42.46,42.46
	c0,23.45,19.01,42.46,42.46,42.46h59.84l56.42,95.21L441.41,356.19c-39.35-17.26-82.22-26.34-126.48-26.34
	c-84.12,0-163.21,32.76-222.69,92.24C32.76,481.57,0,560.66,0,644.78s32.76,163.21,92.24,222.69
	c59.48,59.48,138.57,92.24,222.69,92.24c84.12,0,163.21-32.76,222.69-92.24c49.35-49.35,80.29-112.21,89.4-180.23h246.47
	c0.06,0,0.13,0.01,0.19,0.01c0.06,0,0.13-0.01,0.19-0.01h27.03c14.8,0,28.53-7.7,36.24-20.33l247.42-405.15l85.59,139.33
	c-8,6.58-15.73,13.58-23.15,21c-59.48,59.48-92.24,138.57-92.24,222.69s32.76,163.21,92.24,222.69
	c59.48,59.48,138.57,92.24,222.69,92.24c84.12,0,163.21-32.76,222.69-92.24c59.48-59.48,92.24-138.57,92.24-222.69
	S1751.87,481.57,1692.39,422.09z M597.93,262.83l201.19,339.48h-172.1c-9.11-68.02-40.05-130.88-89.4-180.23
	c-7.62-7.62-15.57-14.79-23.8-21.52L597.93,262.83z M540.99,602.32H390.62l78.31-128.23C505.57,507.18,531.54,551.87,540.99,602.32z
	 M314.93,874.79c-126.83,0-230.01-103.18-230.01-230.01s103.18-230.01,230.01-230.01c28.71,0,56.21,5.3,81.57,14.96L278.69,622.65
	c-8,13.11-8.31,29.51-0.79,42.91c7.51,13.39,21.67,21.69,37.03,21.69h226.06C521.01,793.85,427.25,874.79,314.93,874.79z
	 M887.62,585.07L673,222.93h435.76L887.62,585.07z M1469.7,874.79c-126.83,0-230.01-103.18-230.01-230.01
	c0-67.43,29.17-128.18,75.56-170.29l118.27,192.52c8.02,13.05,21.95,20.24,36.22,20.24c7.58,0,15.26-2.03,22.19-6.29
	c19.98-12.28,26.23-38.43,13.95-58.41l-118.32-192.6c25.52-9.79,53.21-15.18,82.14-15.18c126.83,0,230.01,103.18,230.01,230.01
	S1596.52,874.79,1469.7,874.79z"/>
</svg>
