<?xml version="1.0" encoding="utf-8"?>
<!-- Generator: Adobe Illustrator 25.4.1, SVG Export Plug-In . SVG Version: 6.00 Build 0)  -->
<svg version="1.1" id="Layer_1" xmlns="http://www.w3.org/2000/svg" xmlns:xlink="http://www.w3.org/1999/xlink" x="0px" y="0px"
	 viewBox="0 0 443.97 512" style="enable-background:new 0 0 443.97 512;" xml:space="preserve">
<path d="M104.99,512c-6.97-2.39-14.36-3.96-20.8-7.35c-10.34-5.45-16.92-14.64-20.99-25.57c-0.46-1.23-0.86-2.47-1.45-4.18
	c-9.9,2.93-19.6,2.27-29.24-0.99c-18.4-6.21-32.48-25.63-32.49-45.1c-0.01-26.83,0-53.65,0-80.48c0-30.31,27.94-53.75,57.61-47.97
	c3.96,0.77,4.72-0.38,5.79-3.55c6.57-19.38,26.1-33.03,46.53-32.76c22.83,0.3,43.73,17.59,46.84,40.29
	c1.66,12.11,0.88,24.54,1.18,36.83c0.05,2.12,0.01,4.24,0.01,6.59c42.76,0,85.02,0,128.04,0c0-1.89-0.04-3.81,0.01-5.72
	c0.31-12.62-0.29-25.35,1.17-37.84c2.2-18.84,18.13-35.15,37.6-38.91c19.35-3.74,35.82,2.26,48.1,17.9
	c3.39,4.32,5.67,9.6,7.95,14.67c1.08,2.39,1.78,3.3,4.62,2.73c30.62-6.11,58.51,16.96,58.51,48.26c0,26.16,0,52.32,0,78.48
	c0,26.49-20.63,48.33-47.06,49.48c-4.73,0.21-9.52-0.86-14.17-1.33c-2.75,5.14-5.17,10.76-8.55,15.73
	c-7.97,11.73-19.19,18.47-33.4,20.02c-0.62,0.07-1.2,0.51-1.8,0.77c-3.33,0-6.67,0-10,0c-0.76-0.31-1.49-0.76-2.28-0.91
	c-19.05-3.64-31.63-14.69-38.22-32.89c-3.16-8.72-2.39-17.68-2.47-26.61c-0.06-7.76-0.01-15.52-0.01-23.27
	c-43.02,0-85.38,0-128.04,0c0,11.81,0.22,23.28-0.05,34.74c-0.45,19.09-8.96,33.69-25.79,42.81c-5.27,2.86-11.4,4.13-17.14,6.12
	C111.65,512,108.32,512,104.99,512z M82.97,388.16c0,24.99-0.02,49.98,0.01,74.97c0.02,18.09,17.11,30.51,34.34,25
	c11.92-3.81,18.5-13.71,18.51-28.14c0.03-47.98,0.04-95.97-0.05-143.95c-0.01-3.6-0.51-7.32-1.5-10.77
	c-3.66-12.76-15.9-20.12-29.83-18.26c-11.6,1.55-21.45,13.25-21.47,25.67C82.94,337.84,82.97,363,82.97,388.16z M361,388
	c0-25.16,0.03-50.32-0.01-75.48c-0.02-11.23-7.32-20.93-18.31-24.58c-10.57-3.51-22.1,0.2-28.88,9.07
	c-4.49,5.87-5.64,12.62-5.65,19.69c-0.03,46.65-0.03,93.31,0.02,139.96c0,3.31,0.47,6.61,0.72,9.92
	c0.93,12.35,11.78,23.43,26.7,23.03c14.63-0.39,25.4-12.23,25.41-26.63C361.02,437.98,361,412.99,361,388z M60.51,388.27
	c0-18.98,0-37.97,0-56.95c0-7.42-1.53-8.98-9.15-9.33c-16.84-0.77-28.92,10.25-29.13,27.44c-0.32,25.64-0.23,51.29-0.04,76.93
	c0.14,18.51,13.92,29.35,29.72,27.7c7.08-0.74,8.6-2,8.6-8.85C60.51,426.24,60.51,407.26,60.51,388.27z M383.47,387.87
	c0,19.42,0.19,38.85-0.14,58.27c-0.08,4.63,1.71,6.82,5.7,7.46c6.27,1.01,12.41,0.91,18.34-2.25c10.67-5.7,14.41-15.04,14.44-26.37
	c0.08-23.8,0.06-47.59-0.01-71.39c-0.01-3.63-0.27-7.31-0.87-10.89c-2.49-14.88-19.88-24.74-33.92-19.57
	c-2.89,1.06-3.61,2.61-3.59,5.47C383.51,348.35,383.47,368.11,383.47,387.87z M285.74,370.39c-42.62,0-84.97,0-127.42,0
	c0,11.94,0,23.64,0,35.27c42.71,0,85.06,0,127.42,0C285.74,393.72,285.74,382.14,285.74,370.39z"/>
<path d="M163.99,0c8.16,3.09,9.96,5.78,9.98,14.86c0.02,7.66,0.06,15.33,0.11,22.99c0,0.29,0.28,0.58,0.59,1.18
	c1.31,0,2.8-0.12,4.26,0.02c7.72,0.73,11.95,5.26,12.02,13.06c0.08,10.66,0.02,21.31,0.02,30.42c7.81,5.2,15.16,9.27,21.52,14.54
	c7.6,6.29,12.26,14.86,13.68,24.73c1,6.97,6.94,10.21,10.46,15.24c10.95,15.64,19.43,32.3,19.18,51.79
	c-0.23,18.46-7.76,33.16-25.79,40.6c-3.14,1.3-2.51,3.43-2.51,5.62c0.04,25.43,0.14,50.87,0.14,76.3c0,8.41-3.95,13.43-10.47,13.7
	c-7.62,0.31-12.15-4.64-12.16-13.6c-0.05-25.17-0.1-50.33,0.07-75.5c0.03-3.9-0.87-5.85-4.76-7.62
	c-15.05-6.87-22.14-19.66-23.2-35.57c-1.51-22.62,8.12-41.5,21.44-58.89c2.02-2.63,5.83-6.08,5.23-8.1
	c-1.46-5-4.33-10.01-7.87-13.88c-4.63-5.07-11.4-6.77-18.19-6.8c-24.33-0.11-48.65-0.13-72.98,0.13
	c-11.3,0.12-20.19,4.98-25.02,15.64c-1.34,2.96-1.95,6.33-2.42,9.58c-0.15,1.02,1,2.63,2,3.36c15.46,11.2,23.25,26.07,21.63,45.32
	c-1.26,14.94-8.42,26.66-20.53,35.31c-2.41,1.72-3.59,3.39-3.49,6.45c0.23,6.66-0.02,13.33,0.09,19.99
	c0.13,8.25-5.67,11.75-11.24,11.98c-6.19,0.25-10.75-5.06-10.79-11.89c-0.06-9.33,0.34-18.68-0.14-27.99
	c-0.38-7.43,2.88-11.78,9.25-14.81c9.98-4.75,14.85-13.09,14.81-23.93c-0.04-10.29-4.83-18.55-14.12-22.87
	c-7.47-3.47-9.93-8.32-9.98-16.31c-0.11-17.9,6.11-32.42,20.71-42.92c3.57-2.57,7.72-4.48,11.85-6.03c3.14-1.18,4.33-2.66,4.21-6.07
	c-0.27-7.65-0.17-15.31-0.07-22.97c0.2-14.92,1.75-16.62,16.92-18.52c0-7.55,0.2-15.18-0.05-22.8c-0.3-9.18,1.5-12.41,9.6-15.73
	C133.32,0,148.65,0,163.99,0z M215.87,146.75c-4.39,7.92-8.76,14.74-12.07,22.04c-3.69,8.16-6.2,16.68-3.93,26
	c2.23,9.14,9.22,15.6,17.17,15.03c8.5-0.61,15.1-7.67,16.01-16.89C234.8,175.27,226.38,161.44,215.87,146.75z M168.28,82.86
	c0-7.17,0-13.91,0-20.88c-18.11,0-35.99,0-53.99,0c0,6.99,0,13.86,0,20.88C132.37,82.86,150.12,82.86,168.28,82.86z M131.24,22.37
	c0,5.8,0,11.04,0,16.4c6.83,0,13.37,0,20.06,0c0-5.61,0-10.96,0-16.4C144.47,22.37,138.05,22.37,131.24,22.37z"/>
<path d="M141,179.32c-4.18-0.41-8.52-0.46-12.69-1.34c-5.24-1.1-8.51-5.76-8.3-10.77c0.21-5.13,3.8-9.8,9.07-10.12
	c8.22-0.49,16.52-0.51,24.73,0.06c5.07,0.35,8.23,4.92,8.41,10.09c0.17,5.13-2.78,9.64-7.77,10.68
	C150.11,178.81,145.6,178.87,141,179.32z"/>
<path d="M141.12,215.34c-4.39-0.45-8.88-0.61-13.24-1.43c-4.65-0.87-8.05-5.85-7.86-10.64c0.18-4.61,3.77-9.88,8.01-10.11
	c8.55-0.46,17.18-0.57,25.72-0.01c5.17,0.34,8.26,4.79,8.46,10.02c0.2,5.11-2.68,9.62-7.7,10.72
	C150.19,214.84,145.67,214.89,141.12,215.34z"/>
<path d="M337.32,302.91c6.9-0.06,11.49,4.94,11.57,12.6c0.09,8.04-4.4,13.43-11.25,13.5c-6.87,0.07-11.47-5.18-11.52-13.16
	C326.07,308.15,330.56,302.96,337.32,302.91z"/>
</svg>
