<?xml version="1.0" encoding="utf-8"?>
<!-- Generator: Adobe Illustrator 25.4.1, SVG Export Plug-In . SVG Version: 6.00 Build 0)  -->
<svg version="1.1" id="Layer_1" xmlns="http://www.w3.org/2000/svg" xmlns:xlink="http://www.w3.org/1999/xlink" x="0px" y="0px"
	 viewBox="0 0 341.19 469.6" style="enable-background:new 0 0 341.19 469.6;" xml:space="preserve">
<path d="M277.35,131.59c0,9.67,0.14,19.34-0.08,29c-0.08,3.47,0.96,5.74,3.63,8.07c40.29,35.12,60.86,79.58,60.26,132.94
	c-0.92,82.82-61.75,152.45-143.68,165.8C105.66,482.37,17.1,419.29,2.52,327.48C-7.57,263.9,12.77,210.7,60.8,167.92
	c1.67-1.49,2.82-4.43,2.87-6.72c0.42-21.49-0.36-43.04,0.94-64.47c2.8-46.38,40.72-87.38,86.77-95.12
	c60.81-10.22,115.99,29.55,124.74,90.56c1.86,12.95,1.2,26.27,1.7,39.41C277.66,131.58,277.51,131.59,277.35,131.59z M170.14,440.74
	c78.07,0.26,142.21-63.11,142.6-140.88c0.4-79.02-62.88-143.03-141.77-143.42C93.06,156.04,28.72,219.62,28.4,297.32
	C28.07,376.47,91.33,440.47,170.14,440.74z M249.1,149.29c0-14.77,0.16-26.82-0.03-40.86c-0.54-39.42-30.4-71.8-70.48-76.6
	c-37.8-4.53-75.92,21.27-83.52,59.21c-3.87,19.31-2.77,37.61-4,58.76C143.83,122.37,197.48,120.25,249.1,149.29z"/>
<path d="M149.32,340.64c0-7.33-0.14-14.66,0.07-21.98c0.09-3.15-0.84-5.08-3.5-6.98c-15.75-11.23-21.85-30.66-15.57-48.67
	c6.4-18.33,23.44-29.5,43.46-28.48c18,0.92,33.82,14.43,38.29,32.72c4.09,16.69-2.4,34.18-16.77,44.4
	c-2.63,1.87-3.59,3.77-3.56,6.94c0.13,15.15,0.27,30.31-0.1,45.45c-0.28,11.23-9.73,19.73-21.05,19.75
	c-11.33,0.01-20.56-8.49-21.16-19.68c-0.24-4.48-0.1-8.99-0.12-13.48C149.31,347.3,149.32,343.97,149.32,340.64z"/>
</svg>
