<?xml version="1.0" encoding="utf-8"?>
<!-- Generator: Adobe Illustrator 25.4.1, SVG Export Plug-In . SVG Version: 6.00 Build 0)  -->
<svg version="1.1" id="Layer_1" xmlns="http://www.w3.org/2000/svg" xmlns:xlink="http://www.w3.org/1999/xlink" x="0px" y="0px"
	 viewBox="0 0 501.63 502.48" style="enable-background:new 0 0 501.63 502.48;" xml:space="preserve">
<path d="M423.89,419.3c0.39,19.3-3.92,37.35-15.5,53.12c-19.25,26.2-50.46,36.12-83.74,26.4c-11.62-3.39-22.71-8.82-34.46-11.45
	c-33.68-7.53-67.01-6.67-99.45,6.72c-20.15,8.32-40.97,10.88-61.92,3.72c-28.76-9.83-45.21-31.07-49.5-60.4
	c-7.16-48.92,10.42-89.42,46.89-121.58c15.53-13.69,30.52-27.26,39.3-46.43c3.18-6.95,6.31-13.96,10.04-20.62
	c11.69-20.85,27.76-37.22,50.77-45.04c30.61-10.4,57.69-2.75,81.42,18.29c11.37,10.08,20.03,22.32,26.2,36.15
	c9.77,21.88,22.85,40.89,41.43,56.66c28.19,23.93,43.48,55.39,48.34,91.97c0.09,0.66,0.16,1.33,0.16,1.99
	C423.89,412.3,423.89,415.8,423.89,419.3z M109.63,413.31c0,2.01-0.17,4.04,0.03,6.04c2.09,21.9,10.65,39.87,31.97,48.94
	c14.69,6.25,29.92,5.05,44.34-1c25.14-10.54,51.33-13.57,78.19-12.3c18.02,0.85,35.46,4.25,52.25,11.48
	c7.36,3.17,15.73,4.75,23.78,5.43c20.58,1.76,39.32-9.87,47.72-28.74c6.12-13.77,6.75-28.14,4.11-42.77
	c-5.02-27.79-19.09-50.76-39.91-69.04c-18.87-16.56-32.76-36.05-42.44-58.95c-4.45-10.53-10.99-19.7-19.47-27.45
	c-21.79-19.89-50.66-20.75-73.53-2.16c-9.8,7.97-16.54,18.2-22.53,29.2c-6.94,12.73-13.69,25.75-22.31,37.32
	c-6.74,9.05-16.12,16.16-24.47,23.97C124.13,354.98,110.91,381.33,109.63,413.31z"/>
<path d="M323.79,189.04c-19.18-0.06-33.35-9.28-44.29-24.16c-11.74-15.98-16.62-34.42-17.05-53.86
	c-0.7-31.06,7.48-59.57,27.23-84.09c9.72-12.07,21.82-21.06,36.95-25.16c21.77-5.89,45.16,3.19,59.15,22.67
	c11.68,16.25,16.45,34.83,16.85,54.45c0.57,28.02-6.66,54.02-22.95,77.06c-11.3,15.98-25.89,27.64-45.51,31.85
	C330.78,188.53,327.26,188.64,323.79,189.04z M284.83,105.71c0.6,16.86,3.35,32.53,13.52,45.94c9.85,12.99,24.5,16.74,39.47,10.37
	c8.31-3.54,15.29-8.86,20.84-15.93c15.44-19.64,22.06-42.22,21.3-66.93c-0.43-13.79-3.59-27.04-11.41-38.77
	c-10.34-15.5-26.69-20.29-43.15-11.79c-6.28,3.25-12.42,7.69-17.11,12.95C291.95,59.88,285.66,82.16,284.83,105.71z"/>
<path d="M238.85,110.97c-0.65,19.49-4.82,37.74-16.47,53.67c-17.94,24.54-47.6,30.38-73.35,14.17
	c-22.5-14.16-35.68-35.33-43.35-60.24c-8.17-26.56-9.21-53.1,2.54-78.92c8.7-19.1,22.75-32.44,44.35-35.45
	c18.07-2.52,33.32,4.58,46.62,16.09c20.46,17.73,31.56,40.83,36.71,66.97C237.44,95.05,237.9,103.06,238.85,110.97z M125.01,87.6
	c0.27,15.3,6.34,33.94,17.86,50.79c5.15,7.53,11.52,13.9,19.48,18.48c12.26,7.07,25.99,7.16,35.33-1.19
	c5.15-4.61,9.95-10.7,12.37-17.09c11.52-30.45,5.54-58.91-11.93-85.48c-5.28-8.03-12.16-14.55-20.72-19.12
	c-15.76-8.4-32.08-4.42-42.12,10.35C127.47,55.85,124.97,68.81,125.01,87.6z"/>
<path d="M375.32,227.58c0.95-27.22,9.77-56.9,36.56-78.62c9-7.3,19.37-12.69,31.2-13.3c21.16-1.08,36.68,8.74,47.46,26.47
	c7.34,12.07,10.69,25.49,11.04,39.43c0.73,29.3-7,55.95-26.92,78.17c-10.95,12.22-24.54,19.85-41.23,20.72
	c-18.27,0.95-32.58-6.8-43.33-21.2C380,265.72,376.17,250.03,375.32,227.58z M477.23,207.94c-0.49-12.88-2.25-24.67-9.92-34.57
	c-6.93-8.95-15.93-13.15-27.47-10.53c-9.17,2.09-16,7.72-21.79,14.67c-10.71,12.86-16.07,27.96-17.11,44.51
	c-0.87,13.82,0.98,27.21,8.99,39.03c6.33,9.34,15.16,14.62,26.34,11.58c6.43-1.75,12.94-5.5,17.86-10.03
	C470.18,247.83,475.94,228.35,477.23,207.94z"/>
<path d="M0,204.52c0.58-14.51,3.37-28.41,10.42-41.25c15.08-27.45,44.08-35.94,71.59-20.84c15.47,8.49,26.3,21.37,33.36,37.28
	c11.79,26.56,15.8,53.91,5.55,81.92c-9.09,24.85-28.68,38.05-54.48,36.7c-16.82-0.88-29.72-10.05-40.57-22.08
	C10.83,259.6,4.04,239.27,1.1,217.44C0.52,213.17,0.36,208.83,0,204.52z M102.11,222.34c-0.66-3.64-1.38-10.94-3.37-17.87
	c-4.2-14.56-11.09-27.78-24.05-36.45c-14.83-9.92-29.82-7.42-39.87,7.36c-1.57,2.31-2.92,4.84-3.99,7.43
	c-6.91,16.74-6.25,33.64-0.47,50.48c4.68,13.64,12.04,25.36,24.24,33.77c14.26,9.83,30.14,4.13,38.17-7.73
	C99.6,249.22,101.87,237.89,102.11,222.34z"/>
</svg>
